<svg width="74" height="15" viewBox="0 0 74 15" fill="none" xmlns="http://www.w3.org/2000/svg">
<path d="M60.3182 3.54545C60.5091 3.54545 60.6364 3.41818 60.6364 3.22727V1.63636H62.2273C62.4182 1.63636 62.5455 1.50909 62.5455 1.31818C62.5455 1.12727 62.4182 1 62.2273 1H60.3182C60.1273 1 60 1.12727 60 1.31818V3.22727C60 3.41818 60.1273 3.54545 60.3182 3.54545ZM73.6818 1H71.7727C71.5818 1 71.4545 1.12727 71.4545 1.31818C71.4545 1.50909 71.5818 1.63636 71.7727 1.63636H73.3636V3.22727C73.3636 3.41818 73.4909 3.54545 73.6818 3.54545C73.8727 3.54545 74 3.41818 74 3.22727V1.31818C74 1.12727 73.8727 1 73.6818 1ZM73.6818 12.4545C73.4909 12.4545 73.3636 12.5818 73.3636 12.7727V14.3636H71.7727C71.5818 14.3636 71.4545 14.4909 71.4545 14.6818C71.4545 14.8727 71.5818 15 71.7727 15H73.6818C73.8727 15 74 14.8727 74 14.6818V12.7727C74 12.5818 73.8727 12.4545 73.6818 12.4545ZM62.2273 14.3636H60.6364V12.7727C60.6364 12.5818 60.5091 12.4545 60.3182 12.4545C60.1273 12.4545 60 12.5818 60 12.7727V14.6818C60 14.8727 60.1273 15 60.3182 15H62.2273C62.4182 15 62.5455 14.8727 62.5455 14.6818C62.5455 14.4909 62.4182 14.3636 62.2273 14.3636Z" fill="url(#paint0_linear_2774_87)"/>
<path d="M61.2727 2.59092V13.4091C61.2727 13.6 61.4 13.7273 61.5909 13.7273C61.7818 13.7273 61.9091 13.6 61.9091 13.4091V2.59092C61.9091 2.40001 61.7818 2.27274 61.5909 2.27274C61.4 2.27274 61.2727 2.40001 61.2727 2.59092ZM62.8636 2.27274C62.6727 2.27274 62.5455 2.40001 62.5455 2.59092V13.4091C62.5455 13.6 62.6727 13.7273 62.8636 13.7273C63.0545 13.7273 63.1818 13.6 63.1818 13.4091V2.59092C63.1818 2.40001 63.0545 2.27274 62.8636 2.27274ZM64.1364 2.27274C63.9455 2.27274 63.8182 2.40001 63.8182 2.59092V11.8182C63.8182 12.0091 63.9455 12.1364 64.1364 12.1364C64.3273 12.1364 64.4545 12.0091 64.4545 11.8182V2.59092C64.4545 2.40001 64.3273 2.27274 64.1364 2.27274ZM64.1364 12.7727C63.9455 12.7727 63.8182 12.9 63.8182 13.0909V13.4091C63.8182 13.6 63.9455 13.7273 64.1364 13.7273C64.3273 13.7273 64.4545 13.6 64.4545 13.4091V13.0909C64.4545 12.9 64.3273 12.7727 64.1364 12.7727ZM65.4091 12.7727C65.2182 12.7727 65.0909 12.9 65.0909 13.0909V13.4091C65.0909 13.6 65.2182 13.7273 65.4091 13.7273C65.6 13.7273 65.7273 13.6 65.7273 13.4091V13.0909C65.7273 12.9 65.6 12.7727 65.4091 12.7727ZM67.3182 12.7727C67.1273 12.7727 67 12.9 67 13.0909V13.4091C67 13.6 67.1273 13.7273 67.3182 13.7273C67.5091 13.7273 67.6364 13.6 67.6364 13.4091V13.0909C67.6364 12.9 67.5091 12.7727 67.3182 12.7727ZM69.2273 12.7727C69.0364 12.7727 68.9091 12.9 68.9091 13.0909V13.4091C68.9091 13.6 69.0364 13.7273 69.2273 13.7273C69.4182 13.7273 69.5455 13.6 69.5455 13.4091V13.0909C69.5455 12.9 69.4182 12.7727 69.2273 12.7727ZM71.4545 13.0909C71.4545 12.9 71.3273 12.7727 71.1364 12.7727C70.9455 12.7727 70.8182 12.9 70.8182 13.0909V13.4091C70.8182 13.6 70.9455 13.7273 71.1364 13.7273C71.3273 13.7273 71.4545 13.6 71.4545 13.4091V13.0909ZM65.4091 2.27274C65.2182 2.27274 65.0909 2.40001 65.0909 2.59092V11.8182C65.0909 12.0091 65.2182 12.1364 65.4091 12.1364C65.6 12.1364 65.7273 12.0091 65.7273 11.8182V2.59092C65.7273 2.40001 65.6 2.27274 65.4091 2.27274ZM69.2273 2.27274C69.0364 2.27274 68.9091 2.40001 68.9091 2.59092V11.8182C68.9091 12.0091 69.0364 12.1364 69.2273 12.1364C69.4182 12.1364 69.5455 12.0091 69.5455 11.8182V2.59092C69.5455 2.40001 69.4182 2.27274 69.2273 2.27274ZM67.3182 2.27274C67.1273 2.27274 67 2.40001 67 2.59092V11.8182C67 12.0091 67.1273 12.1364 67.3182 12.1364C67.5091 12.1364 67.6364 12.0091 67.6364 11.8182V2.59092C67.6364 2.40001 67.5091 2.27274 67.3182 2.27274ZM71.1364 12.1364C71.3273 12.1364 71.4545 12.0091 71.4545 11.8182V2.59092C71.4545 2.40001 71.3273 2.27274 71.1364 2.27274C70.9455 2.27274 70.8182 2.40001 70.8182 2.59092V11.8182C70.8182 12.0091 70.9455 12.1364 71.1364 12.1364ZM72.7273 13.4091V2.59092C72.7273 2.40001 72.6 2.27274 72.4091 2.27274C72.2182 2.27274 72.0909 2.40001 72.0909 2.59092V13.4091C72.0909 13.6 72.2182 13.7273 72.4091 13.7273C72.6 13.7273 72.7273 13.6 72.7273 13.4091Z" fill="url(#paint1_linear_2774_87)"/>
<path d="M6.14915 3.27273H7.99432V8.94034C7.99432 9.5767 7.84233 10.1335 7.53835 10.6108C7.23722 11.0881 6.81534 11.4602 6.27273 11.7273C5.73011 11.9915 5.09801 12.1236 4.37642 12.1236C3.65199 12.1236 3.01847 11.9915 2.47585 11.7273C1.93324 11.4602 1.51136 11.0881 1.21023 10.6108C0.909091 10.1335 0.758523 9.5767 0.758523 8.94034V3.27273H2.60369V8.78267C2.60369 9.11506 2.67614 9.41051 2.82102 9.66903C2.96875 9.92756 3.17614 10.1307 3.44318 10.2784C3.71023 10.4261 4.02131 10.5 4.37642 10.5C4.73438 10.5 5.04545 10.4261 5.30966 10.2784C5.5767 10.1307 5.78267 9.92756 5.92756 9.66903C6.07528 9.41051 6.14915 9.11506 6.14915 8.78267V3.27273ZM8.79243 12V3.27273H12.2356C12.8975 3.27273 13.4615 3.39915 13.9274 3.65199C14.3933 3.90199 14.7484 4.25 14.9927 4.69602C15.2399 5.1392 15.3635 5.65057 15.3635 6.23011C15.3635 6.80966 15.2385 7.32102 14.9885 7.7642C14.7385 8.20739 14.3762 8.55256 13.9018 8.79972C13.4302 9.04687 12.8592 9.17045 12.1887 9.17045H9.99413V7.69176H11.8904C12.2456 7.69176 12.5382 7.63068 12.7683 7.50852C13.0012 7.38352 13.1745 7.21165 13.2882 6.9929C13.4046 6.77131 13.4629 6.51705 13.4629 6.23011C13.4629 5.94034 13.4046 5.6875 13.2882 5.47159C13.1745 5.25284 13.0012 5.08381 12.7683 4.96449C12.5353 4.84233 12.2399 4.78125 11.8819 4.78125H10.6376V12H8.79243ZM23.5422 6.32812H21.6758C21.6417 6.08665 21.5721 5.87216 21.467 5.68466C21.3618 5.49432 21.2269 5.33239 21.0621 5.19886C20.8974 5.06534 20.707 4.96307 20.4911 4.89205C20.278 4.82102 20.0465 4.78551 19.7965 4.78551C19.3448 4.78551 18.9513 4.89773 18.6161 5.12216C18.2809 5.34375 18.0209 5.66761 17.8363 6.09375C17.6516 6.51705 17.5593 7.03125 17.5593 7.63636C17.5593 8.25852 17.6516 8.78125 17.8363 9.20455C18.0238 9.62784 18.2851 9.94744 18.6204 10.1634C18.9556 10.3793 19.3434 10.4872 19.7837 10.4872C20.0309 10.4872 20.2596 10.4545 20.4698 10.3892C20.6829 10.3239 20.8718 10.2287 21.0366 10.1037C21.2013 9.97585 21.3377 9.82102 21.4457 9.6392C21.5564 9.45739 21.6332 9.25 21.6758 9.01705L23.5422 9.02557C23.4939 9.42614 23.3732 9.8125 23.18 10.1847C22.9897 10.554 22.7326 10.8849 22.4087 11.1776C22.0877 11.4673 21.7042 11.6974 21.2582 11.8679C20.815 12.0355 20.3136 12.1193 19.7539 12.1193C18.9755 12.1193 18.2795 11.9432 17.6658 11.5909C17.055 11.2386 16.5721 10.7287 16.217 10.0611C15.8647 9.39347 15.6886 8.58523 15.6886 7.63636C15.6886 6.68466 15.8675 5.875 16.2255 5.20739C16.5834 4.53977 17.0692 4.03125 17.6829 3.68182C18.2965 3.32955 18.9868 3.15341 19.7539 3.15341C20.2596 3.15341 20.7283 3.22443 21.1601 3.36648C21.5948 3.50852 21.9797 3.71591 22.315 3.98864C22.6502 4.25852 22.9229 4.58949 23.1332 4.98153C23.3462 5.37358 23.4826 5.82244 23.5422 6.32812ZM24.1454 3.27273H26.421L28.8244 9.13636H28.9266L31.3301 3.27273H33.6056V12H31.8159V6.3196H31.7434L29.4849 11.9574H28.2661L26.0076 6.2983H25.9352V12H24.1454V3.27273ZM36.2383 12.1236C35.8206 12.1236 35.4485 12.0511 35.1218 11.9062C34.7951 11.7585 34.5365 11.5412 34.3462 11.2543C34.1587 10.9645 34.065 10.6037 34.065 10.1719C34.065 9.80824 34.1317 9.50284 34.2652 9.25568C34.3988 9.00852 34.5806 8.80966 34.8107 8.65909C35.0408 8.50852 35.3022 8.39489 35.5948 8.31818C35.8902 8.24148 36.1999 8.1875 36.5238 8.15625C36.9044 8.11648 37.2113 8.07955 37.4442 8.04545C37.6772 8.00852 37.8462 7.95455 37.9513 7.88352C38.0564 7.8125 38.109 7.70739 38.109 7.56818V7.54261C38.109 7.27273 38.0238 7.06392 37.8533 6.91619C37.6857 6.76847 37.4471 6.6946 37.1374 6.6946C36.8107 6.6946 36.5508 6.76705 36.3576 6.91193C36.1644 7.05398 36.0365 7.23295 35.974 7.44886L34.2951 7.3125C34.3803 6.91477 34.5479 6.57102 34.7979 6.28125C35.0479 5.98864 35.3704 5.7642 35.7652 5.60795C36.163 5.44886 36.6232 5.36932 37.1459 5.36932C37.5096 5.36932 37.8576 5.41193 38.19 5.49716C38.5252 5.58239 38.8221 5.71449 39.0806 5.89347C39.3419 6.07244 39.5479 6.30256 39.6985 6.58381C39.849 6.86222 39.9243 7.19602 39.9243 7.58523V12H38.2027V11.0923H38.1516C38.0465 11.2969 37.9059 11.4773 37.7297 11.6335C37.5536 11.7869 37.3419 11.9077 37.0948 11.9957C36.8476 12.081 36.5621 12.1236 36.2383 12.1236ZM36.7581 10.8707C37.0252 10.8707 37.261 10.8182 37.4655 10.7131C37.6701 10.6051 37.8306 10.4602 37.9471 10.2784C38.0635 10.0966 38.1218 9.89062 38.1218 9.66051V8.96591C38.065 9.00284 37.9868 9.03693 37.8874 9.06818C37.7908 9.09659 37.6814 9.12358 37.5593 9.14915C37.4371 9.17187 37.315 9.19318 37.1928 9.21307C37.0706 9.23011 36.9598 9.24574 36.8604 9.25994C36.6473 9.29119 36.4613 9.34091 36.3022 9.40909C36.1431 9.47727 36.0195 9.5696 35.9314 9.68608C35.8434 9.79972 35.7993 9.94176 35.7993 10.1122C35.7993 10.3594 35.8888 10.5483 36.0678 10.679C36.2496 10.8068 36.4797 10.8707 36.7581 10.8707ZM42.2576 10.1165L42.2619 7.93892H42.5261L44.6227 5.45455H46.7065L43.8897 8.74432H43.4593L42.2576 10.1165ZM40.6127 12V3.27273H42.4281V12H40.6127ZM44.7036 12L42.7775 9.14915L43.9877 7.86648L46.83 12H44.7036ZM49.5905 12.1278C48.9172 12.1278 48.3377 11.9915 47.8519 11.7188C47.3689 11.4432 46.9968 11.054 46.7354 10.5511C46.474 10.0455 46.3434 9.44744 46.3434 8.7571C46.3434 8.08381 46.474 7.4929 46.7354 6.98438C46.9968 6.47585 47.3647 6.07955 47.8391 5.79545C48.3164 5.51136 48.876 5.36932 49.5181 5.36932C49.9499 5.36932 50.3519 5.43892 50.724 5.57812C51.099 5.71449 51.4257 5.92045 51.7041 6.19602C51.9854 6.47159 52.2041 6.81818 52.3604 7.2358C52.5166 7.65057 52.5948 8.13636 52.5948 8.69318V9.19176H47.0678V8.06676H50.886C50.886 7.8054 50.8291 7.57386 50.7155 7.37216C50.6019 7.17045 50.4442 7.01278 50.2425 6.89915C50.0436 6.78267 49.8121 6.72443 49.5479 6.72443C49.2723 6.72443 49.028 6.78835 48.8149 6.91619C48.6047 7.04119 48.4399 7.21023 48.3206 7.4233C48.2013 7.63352 48.1402 7.8679 48.1374 8.12642V9.19602C48.1374 9.51989 48.197 9.79972 48.3164 10.0355C48.4385 10.2713 48.6104 10.4531 48.832 10.581C49.0536 10.7088 49.3164 10.7727 49.6203 10.7727C49.822 10.7727 50.0067 10.7443 50.1743 10.6875C50.3419 10.6307 50.4854 10.5455 50.6047 10.4318C50.724 10.3182 50.8149 10.179 50.8774 10.0142L52.5564 10.125C52.4712 10.5284 52.2965 10.8807 52.0323 11.1818C51.7709 11.4801 51.4328 11.7131 51.0181 11.8807C50.6061 12.0455 50.1303 12.1278 49.5905 12.1278ZM53.0594 12V5.45455H54.8194V6.59659H54.8876C55.0069 6.19034 55.2072 5.88352 55.4884 5.67614C55.7697 5.46591 56.0935 5.3608 56.46 5.3608C56.5509 5.3608 56.6489 5.36648 56.754 5.37784C56.8591 5.3892 56.9515 5.40483 57.031 5.42472V7.03551C56.9458 7.00994 56.8279 6.98722 56.6773 6.96733C56.5268 6.94744 56.389 6.9375 56.264 6.9375C55.9969 6.9375 55.7583 6.99574 55.5481 7.11222C55.3407 7.22585 55.1759 7.38494 55.0537 7.58949C54.9344 7.79403 54.8748 8.02983 54.8748 8.29688V12H53.0594Z" fill="url(#paint2_linear_2774_87)"/>
<defs>
<linearGradient id="paint0_linear_2774_87" x1="60" y1="8" x2="74" y2="8" gradientUnits="userSpaceOnUse">
<stop stop-color="#4500E6"/>
<stop offset="1" stop-color="#D900AA"/>
</linearGradient>
<linearGradient id="paint1_linear_2774_87" x1="61.2727" y1="8.00001" x2="72.7273" y2="8.00001" gradientUnits="userSpaceOnUse">
<stop stop-color="#4500E6"/>
<stop offset="1" stop-color="#D900AA"/>
</linearGradient>
<linearGradient id="paint2_linear_2774_87" x1="0" y1="7.5" x2="59" y2="7.5" gradientUnits="userSpaceOnUse">
<stop stop-color="#4500E6"/>
<stop offset="1" stop-color="#D900AA"/>
</linearGradient>
</defs>
</svg>
