<svg width="83" height="12" viewBox="0 0 83 12" fill="none" xmlns="http://www.w3.org/2000/svg">
<path d="M3.072 5.004L0.18 0.408H2.112L3.828 3.252H3.924L5.58 0.408H7.536L4.692 5.004V9H3.072V5.004ZM10.1999 9.192C9.56791 9.192 9.00391 9.052 8.50791 8.772C8.01191 8.484 7.62391 8.096 7.34391 7.608C7.07191 7.112 6.93591 6.556 6.93591 5.94C6.93591 5.332 7.07191 4.78 7.34391 4.284C7.62391 3.788 8.01191 3.4 8.50791 3.12C9.00391 2.832 9.56791 2.688 10.1999 2.688C10.8239 2.688 11.3839 2.832 11.8799 3.12C12.3759 3.4 12.7599 3.788 13.0319 4.284C13.3119 4.78 13.4519 5.332 13.4519 5.94C13.4519 6.556 13.3119 7.112 13.0319 7.608C12.7599 8.096 12.3759 8.484 11.8799 8.772C11.3839 9.052 10.8239 9.192 10.1999 9.192ZM10.1999 7.74C10.5039 7.74 10.7839 7.668 11.0399 7.524C11.2959 7.38 11.4999 7.172 11.6519 6.9C11.8039 6.628 11.8799 6.308 11.8799 5.94C11.8799 5.58 11.8039 5.264 11.6519 4.992C11.4999 4.72 11.2959 4.512 11.0399 4.368C10.7839 4.224 10.5039 4.152 10.1999 4.152C9.89591 4.152 9.61591 4.224 9.35991 4.368C9.10391 4.512 8.89591 4.72 8.73591 4.992C8.58391 5.264 8.50791 5.58 8.50791 5.94C8.50791 6.3 8.58391 6.62 8.73591 6.9C8.89591 7.172 9.10391 7.38 9.35991 7.524C9.61591 7.668 9.89591 7.74 10.1999 7.74ZM16.8041 9.192C16.0681 9.192 15.5081 8.964 15.1241 8.508C14.7401 8.052 14.5481 7.416 14.5481 6.6V2.88H16.1201V6.408C16.1201 6.824 16.2201 7.152 16.4201 7.392C16.6201 7.624 16.8841 7.74 17.2121 7.74C17.6601 7.74 18.0161 7.576 18.2801 7.248C18.5441 6.92 18.6761 6.504 18.6761 6V2.88H20.2481V9H18.7721V8.232H18.6761C18.4921 8.528 18.2321 8.764 17.8961 8.94C17.5681 9.108 17.2041 9.192 16.8041 9.192ZM21.7797 2.88H23.2557V3.696H23.3517C23.5037 3.408 23.7397 3.172 24.0597 2.988C24.3797 2.796 24.7317 2.7 25.1157 2.7C25.3957 2.7 25.6517 2.744 25.8837 2.832V4.404C25.6677 4.324 25.4837 4.268 25.3317 4.236C25.1877 4.196 25.0317 4.176 24.8637 4.176C24.3997 4.176 24.0317 4.344 23.7597 4.68C23.4877 5.016 23.3517 5.44 23.3517 5.952V9H21.7797V2.88ZM27.1168 0.408H28.7368V7.464H32.3728V9H27.1168V0.408ZM36.3327 9.192C35.7007 9.192 35.1367 9.052 34.6407 8.772C34.1447 8.484 33.7567 8.096 33.4767 7.608C33.2047 7.112 33.0687 6.556 33.0687 5.94C33.0687 5.332 33.2047 4.78 33.4767 4.284C33.7567 3.788 34.1447 3.4 34.6407 3.12C35.1367 2.832 35.7007 2.688 36.3327 2.688C36.9567 2.688 37.5167 2.832 38.0127 3.12C38.5087 3.4 38.8927 3.788 39.1647 4.284C39.4447 4.78 39.5847 5.332 39.5847 5.94C39.5847 6.556 39.4447 7.112 39.1647 7.608C38.8927 8.096 38.5087 8.484 38.0127 8.772C37.5167 9.052 36.9567 9.192 36.3327 9.192ZM36.3327 7.74C36.6367 7.74 36.9167 7.668 37.1727 7.524C37.4287 7.38 37.6327 7.172 37.7847 6.9C37.9367 6.628 38.0127 6.308 38.0127 5.94C38.0127 5.58 37.9367 5.264 37.7847 4.992C37.6327 4.72 37.4287 4.512 37.1727 4.368C36.9167 4.224 36.6367 4.152 36.3327 4.152C36.0287 4.152 35.7487 4.224 35.4927 4.368C35.2367 4.512 35.0287 4.72 34.8687 4.992C34.7167 5.264 34.6407 5.58 34.6407 5.94C34.6407 6.3 34.7167 6.62 34.8687 6.9C35.0287 7.172 35.2367 7.38 35.4927 7.524C35.7487 7.668 36.0287 7.74 36.3327 7.74ZM43.6075 11.784C42.8315 11.784 42.1875 11.608 41.6755 11.256C41.1635 10.912 40.8195 10.496 40.6435 10.008L42.1195 9.408C42.2475 9.712 42.4435 9.952 42.7075 10.128C42.9715 10.304 43.2715 10.392 43.6075 10.392C44.1035 10.392 44.4955 10.24 44.7835 9.936C45.0795 9.632 45.2275 9.2 45.2275 8.64V8.16H45.1315C44.9395 8.432 44.6875 8.64 44.3755 8.784C44.0635 8.928 43.7075 9 43.3075 9C42.8035 9 42.3315 8.872 41.8915 8.616C41.4595 8.352 41.1115 7.984 40.8475 7.512C40.5835 7.032 40.4515 6.476 40.4515 5.844C40.4515 5.212 40.5835 4.66 40.8475 4.188C41.1115 3.708 41.4595 3.34 41.8915 3.084C42.3315 2.82 42.8035 2.688 43.3075 2.688C43.7075 2.688 44.0635 2.76 44.3755 2.904C44.6875 3.048 44.9395 3.256 45.1315 3.528H45.2275V2.88H46.7395V8.58C46.7395 9.236 46.6115 9.804 46.3555 10.284C46.0995 10.764 45.7355 11.132 45.2635 11.388C44.7915 11.652 44.2395 11.784 43.6075 11.784ZM43.6315 7.572C44.0715 7.572 44.4475 7.42 44.7595 7.116C45.0715 6.804 45.2275 6.38 45.2275 5.844C45.2275 5.292 45.0715 4.868 44.7595 4.572C44.4555 4.268 44.0795 4.116 43.6315 4.116C43.1835 4.116 42.8035 4.268 42.4915 4.572C42.1795 4.876 42.0235 5.3 42.0235 5.844C42.0235 6.388 42.1795 6.812 42.4915 7.116C42.8035 7.42 43.1835 7.572 43.6315 7.572ZM51.1452 9.192C50.5132 9.192 49.9492 9.052 49.4532 8.772C48.9572 8.484 48.5692 8.096 48.2892 7.608C48.0172 7.112 47.8812 6.556 47.8812 5.94C47.8812 5.332 48.0172 4.78 48.2892 4.284C48.5692 3.788 48.9572 3.4 49.4532 3.12C49.9492 2.832 50.5132 2.688 51.1452 2.688C51.7692 2.688 52.3292 2.832 52.8252 3.12C53.3212 3.4 53.7052 3.788 53.9772 4.284C54.2572 4.78 54.3972 5.332 54.3972 5.94C54.3972 6.556 54.2572 7.112 53.9772 7.608C53.7052 8.096 53.3212 8.484 52.8252 8.772C52.3292 9.052 51.7692 9.192 51.1452 9.192ZM51.1452 7.74C51.4492 7.74 51.7292 7.668 51.9852 7.524C52.2412 7.38 52.4452 7.172 52.5972 6.9C52.7492 6.628 52.8252 6.308 52.8252 5.94C52.8252 5.58 52.7492 5.264 52.5972 4.992C52.4452 4.72 52.2412 4.512 51.9852 4.368C51.7292 4.224 51.4492 4.152 51.1452 4.152C50.8412 4.152 50.5612 4.224 50.3052 4.368C50.0492 4.512 49.8412 4.72 49.6812 4.992C49.5292 5.264 49.4532 5.58 49.4532 5.94C49.4532 6.3 49.5292 6.62 49.6812 6.9C49.8412 7.172 50.0492 7.38 50.3052 7.524C50.5612 7.668 50.8412 7.74 51.1452 7.74ZM55.816 0.408H57.436V3.84H61.048V0.408H62.668V9H61.048V5.376H57.436V9H55.816V0.408ZM67.2923 9.192C66.6843 9.192 66.1363 9.052 65.6483 8.772C65.1603 8.492 64.7763 8.108 64.4963 7.62C64.2243 7.124 64.0883 6.568 64.0883 5.952C64.0883 5.368 64.2243 4.828 64.4963 4.332C64.7683 3.828 65.1443 3.428 65.6243 3.132C66.1043 2.836 66.6403 2.688 67.2323 2.688C67.8643 2.688 68.4083 2.824 68.8643 3.096C69.3203 3.368 69.6643 3.74 69.8963 4.212C70.1363 4.684 70.2563 5.208 70.2563 5.784C70.2563 5.968 70.2443 6.144 70.2203 6.312H65.6243C65.7043 6.8 65.8963 7.172 66.2003 7.428C66.5123 7.676 66.8843 7.8 67.3163 7.8C67.6763 7.8 67.9843 7.724 68.2403 7.572C68.5043 7.412 68.7123 7.2 68.8643 6.936L70.1363 7.56C69.5123 8.648 68.5643 9.192 67.2923 9.192ZM68.7443 5.196C68.7283 5.004 68.6563 4.816 68.5283 4.632C68.4083 4.44 68.2363 4.284 68.0123 4.164C67.7963 4.036 67.5403 3.972 67.2443 3.972C66.8683 3.972 66.5443 4.084 66.2723 4.308C66.0083 4.524 65.8163 4.82 65.6963 5.196H68.7443ZM71.4672 2.88H72.9432V3.696H73.0392C73.1912 3.408 73.4272 3.172 73.7472 2.988C74.0672 2.796 74.4192 2.7 74.8032 2.7C75.0832 2.7 75.3392 2.744 75.5712 2.832V4.404C75.3552 4.324 75.1712 4.268 75.0192 4.236C74.8752 4.196 74.7192 4.176 74.5512 4.176C74.0872 4.176 73.7192 4.344 73.4472 4.68C73.1752 5.016 73.0392 5.44 73.0392 5.952V9H71.4672V2.88ZM79.093 9.192C78.485 9.192 77.937 9.052 77.449 8.772C76.961 8.492 76.577 8.108 76.297 7.62C76.025 7.124 75.889 6.568 75.889 5.952C75.889 5.368 76.025 4.828 76.297 4.332C76.569 3.828 76.945 3.428 77.425 3.132C77.905 2.836 78.441 2.688 79.033 2.688C79.665 2.688 80.209 2.824 80.665 3.096C81.121 3.368 81.465 3.74 81.697 4.212C81.937 4.684 82.057 5.208 82.057 5.784C82.057 5.968 82.045 6.144 82.021 6.312H77.425C77.505 6.8 77.697 7.172 78.001 7.428C78.313 7.676 78.685 7.8 79.117 7.8C79.477 7.8 79.785 7.724 80.041 7.572C80.305 7.412 80.513 7.2 80.665 6.936L81.937 7.56C81.313 8.648 80.365 9.192 79.093 9.192ZM80.545 5.196C80.529 5.004 80.457 4.816 80.329 4.632C80.209 4.44 80.037 4.284 79.813 4.164C79.597 4.036 79.341 3.972 79.045 3.972C78.669 3.972 78.345 4.084 78.073 4.308C77.809 4.524 77.617 4.82 77.497 5.196H80.545Z" fill="#222222"/>
</svg>
