<svg width="70" height="15" viewBox="0 0 70 15" fill="none" xmlns="http://www.w3.org/2000/svg">
<path d="M25.4588 6.32812H23.5923C23.5582 6.08665 23.4886 5.87216 23.3835 5.68466C23.2784 5.49432 23.1435 5.33239 22.9787 5.19886C22.8139 5.06534 22.6236 4.96307 22.4077 4.89205C22.1946 4.82102 21.9631 4.78551 21.7131 4.78551C21.2614 4.78551 20.8679 4.89773 20.5327 5.12216C20.1974 5.34375 19.9375 5.66761 19.7528 6.09375C19.5682 6.51705 19.4759 7.03125 19.4759 7.63636C19.4759 8.25852 19.5682 8.78125 19.7528 9.20455C19.9403 9.62784 20.2017 9.94744 20.5369 10.1634C20.8722 10.3793 21.2599 10.4872 21.7003 10.4872C21.9474 10.4872 22.1761 10.4545 22.3864 10.3892C22.5994 10.3239 22.7884 10.2287 22.9531 10.1037C23.1179 9.97585 23.2543 9.82102 23.3622 9.6392C23.473 9.45739 23.5497 9.25 23.5923 9.01705L25.4588 9.02557C25.4105 9.42614 25.2898 9.8125 25.0966 10.1847C24.9063 10.554 24.6491 10.8849 24.3253 11.1776C24.0043 11.4673 23.6207 11.6974 23.1747 11.8679C22.7315 12.0355 22.2301 12.1193 21.6705 12.1193C20.892 12.1193 20.196 11.9432 19.5824 11.5909C18.9716 11.2386 18.4886 10.7287 18.1335 10.0611C17.7812 9.39347 17.6051 8.58523 17.6051 7.63636C17.6051 6.68466 17.7841 5.875 18.142 5.20739C18.5 4.53977 18.9858 4.03125 19.5994 3.68182C20.2131 3.32955 20.9034 3.15341 21.6705 3.15341C22.1761 3.15341 22.6449 3.22443 23.0767 3.36648C23.5114 3.50852 23.8963 3.71591 24.2315 3.98864C24.5668 4.25852 24.8395 4.58949 25.0497 4.98153C25.2628 5.37358 25.3991 5.82244 25.4588 6.32812ZM26.0279 12V5.45455H27.7878V6.59659H27.856C27.9753 6.19034 28.1756 5.88352 28.4568 5.67614C28.7381 5.46591 29.062 5.3608 29.4284 5.3608C29.5193 5.3608 29.6174 5.36648 29.7225 5.37784C29.8276 5.3892 29.9199 5.40483 29.9995 5.42472V7.03551C29.9142 7.00994 29.7963 6.98722 29.6458 6.96733C29.4952 6.94744 29.3574 6.9375 29.2324 6.9375C28.9654 6.9375 28.7267 6.99574 28.5165 7.11222C28.3091 7.22585 28.1443 7.38494 28.0222 7.58949C27.9029 7.79403 27.8432 8.02983 27.8432 8.29688V12H26.0279ZM32.8963 12.1278C32.223 12.1278 31.6435 11.9915 31.1577 11.7188C30.6747 11.4432 30.3025 11.054 30.0412 10.5511C29.7798 10.0455 29.6491 9.44744 29.6491 8.7571C29.6491 8.08381 29.7798 7.4929 30.0412 6.98438C30.3025 6.47585 30.6704 6.07955 31.1449 5.79545C31.6221 5.51136 32.1818 5.36932 32.8238 5.36932C33.2557 5.36932 33.6577 5.43892 34.0298 5.57812C34.4048 5.71449 34.7315 5.92045 35.0099 6.19602C35.2912 6.47159 35.5099 6.81818 35.6662 7.2358C35.8224 7.65057 35.9006 8.13636 35.9006 8.69318V9.19176H30.3736V8.06676H34.1917C34.1917 7.8054 34.1349 7.57386 34.0213 7.37216C33.9077 7.17045 33.75 7.01278 33.5483 6.89915C33.3494 6.78267 33.1179 6.72443 32.8537 6.72443C32.5781 6.72443 32.3338 6.78835 32.1207 6.91619C31.9105 7.04119 31.7457 7.21023 31.6264 7.4233C31.5071 7.63352 31.446 7.8679 31.4432 8.12642V9.19602C31.4432 9.51989 31.5028 9.79972 31.6221 10.0355C31.7443 10.2713 31.9162 10.4531 32.1378 10.581C32.3594 10.7088 32.6221 10.7727 32.9261 10.7727C33.1278 10.7727 33.3125 10.7443 33.4801 10.6875C33.6477 10.6307 33.7912 10.5455 33.9105 10.4318C34.0298 10.3182 34.1207 10.179 34.1832 10.0142L35.8622 10.125C35.777 10.5284 35.6023 10.8807 35.3381 11.1818C35.0767 11.4801 34.7386 11.7131 34.3238 11.8807C33.9119 12.0455 33.4361 12.1278 32.8963 12.1278ZM38.2317 12.1236C37.8141 12.1236 37.4419 12.0511 37.1152 11.9062C36.7885 11.7585 36.53 11.5412 36.3396 11.2543C36.1521 10.9645 36.0584 10.6037 36.0584 10.1719C36.0584 9.80824 36.1252 9.50284 36.2587 9.25568C36.3922 9.00852 36.574 8.80966 36.8041 8.65909C37.0342 8.50852 37.2956 8.39489 37.5882 8.31818C37.8837 8.24148 38.1933 8.1875 38.5172 8.15625C38.8979 8.11648 39.2047 8.07955 39.4377 8.04545C39.6706 8.00852 39.8396 7.95455 39.9448 7.88352C40.0499 7.8125 40.1024 7.70739 40.1024 7.56818V7.54261C40.1024 7.27273 40.0172 7.06392 39.8467 6.91619C39.6791 6.76847 39.4405 6.6946 39.1308 6.6946C38.8041 6.6946 38.5442 6.76705 38.351 6.91193C38.1578 7.05398 38.03 7.23295 37.9675 7.44886L36.2885 7.3125C36.3737 6.91477 36.5413 6.57102 36.7913 6.28125C37.0413 5.98864 37.3638 5.7642 37.7587 5.60795C38.1564 5.44886 38.6166 5.36932 39.1394 5.36932C39.503 5.36932 39.851 5.41193 40.1834 5.49716C40.5186 5.58239 40.8155 5.71449 41.074 5.89347C41.3354 6.07244 41.5413 6.30256 41.6919 6.58381C41.8425 6.86222 41.9178 7.19602 41.9178 7.58523V12H40.1962V11.0923H40.145C40.0399 11.2969 39.8993 11.4773 39.7232 11.6335C39.547 11.7869 39.3354 11.9077 39.0882 11.9957C38.8411 12.081 38.5556 12.1236 38.2317 12.1236ZM38.7516 10.8707C39.0186 10.8707 39.2544 10.8182 39.459 10.7131C39.6635 10.6051 39.824 10.4602 39.9405 10.2784C40.057 10.0966 40.1152 9.89062 40.1152 9.66051V8.96591C40.0584 9.00284 39.9803 9.03693 39.8808 9.06818C39.7842 9.09659 39.6749 9.12358 39.5527 9.14915C39.4306 9.17187 39.3084 9.19318 39.1862 9.21307C39.0641 9.23011 38.9533 9.24574 38.8538 9.25994C38.6408 9.29119 38.4547 9.34091 38.2956 9.40909C38.1365 9.47727 38.0129 9.5696 37.9249 9.68608C37.8368 9.79972 37.7928 9.94176 37.7928 10.1122C37.7928 10.3594 37.8823 10.5483 38.0612 10.679C38.2431 10.8068 38.4732 10.8707 38.7516 10.8707ZM46.0877 5.45455V6.81818H42.1459V5.45455H46.0877ZM43.0408 3.88636H44.8561V9.98864C44.8561 10.1562 44.8817 10.2869 44.9329 10.3807C44.984 10.4716 45.055 10.5355 45.1459 10.5724C45.2397 10.6094 45.3476 10.6278 45.4698 10.6278C45.555 10.6278 45.6402 10.6207 45.7255 10.6065C45.8107 10.5895 45.876 10.5767 45.9215 10.5682L46.207 11.919C46.1161 11.9474 45.9883 11.9801 45.8235 12.017C45.6587 12.0568 45.4584 12.081 45.2226 12.0895C44.7851 12.1065 44.4016 12.0483 44.0721 11.9148C43.7454 11.7812 43.4911 11.5739 43.3093 11.2926C43.1275 11.0114 43.038 10.6562 43.0408 10.2273V3.88636ZM49.4629 12.1278C48.7896 12.1278 48.21 11.9915 47.7242 11.7188C47.2413 11.4432 46.8691 11.054 46.6077 10.5511C46.3464 10.0455 46.2157 9.44744 46.2157 8.7571C46.2157 8.08381 46.3464 7.4929 46.6077 6.98438C46.8691 6.47585 47.237 6.07955 47.7114 5.79545C48.1887 5.51136 48.7484 5.36932 49.3904 5.36932C49.8222 5.36932 50.2242 5.43892 50.5964 5.57812C50.9714 5.71449 51.2981 5.92045 51.5765 6.19602C51.8577 6.47159 52.0765 6.81818 52.2327 7.2358C52.389 7.65057 52.4671 8.13636 52.4671 8.69318V9.19176H46.9401V8.06676H50.7583C50.7583 7.8054 50.7015 7.57386 50.5879 7.37216C50.4742 7.17045 50.3165 7.01278 50.1148 6.89915C49.916 6.78267 49.6844 6.72443 49.4202 6.72443C49.1447 6.72443 48.9004 6.78835 48.6873 6.91619C48.4771 7.04119 48.3123 7.21023 48.193 7.4233C48.0737 7.63352 48.0126 7.8679 48.0097 8.12642V9.19602C48.0097 9.51989 48.0694 9.79972 48.1887 10.0355C48.3109 10.2713 48.4827 10.4531 48.7043 10.581C48.9259 10.7088 49.1887 10.7727 49.4927 10.7727C49.6944 10.7727 49.879 10.7443 50.0467 10.6875C50.2143 10.6307 50.3577 10.5455 50.4771 10.4318C50.5964 10.3182 50.6873 10.179 50.7498 10.0142L52.4288 10.125C52.3435 10.5284 52.1688 10.8807 51.9046 11.1818C51.6433 11.4801 51.3052 11.7131 50.8904 11.8807C50.4785 12.0455 50.0026 12.1278 49.4629 12.1278ZM56.2599 8.96591H57.8281L58.6164 9.98011L59.392 10.8835L60.8537 12.7159H59.1321L58.1264 11.4801L57.6108 10.7472L56.2599 8.96591ZM60.9858 7.63636C60.9858 8.58807 60.8054 9.39773 60.4446 10.0653C60.0866 10.733 59.598 11.2429 58.9787 11.5952C58.3622 11.9446 57.669 12.1193 56.8991 12.1193C56.1235 12.1193 55.4275 11.9432 54.811 11.5909C54.1946 11.2386 53.7073 10.7287 53.3494 10.0611C52.9914 9.39347 52.8125 8.58523 52.8125 7.63636C52.8125 6.68466 52.9914 5.875 53.3494 5.20739C53.7073 4.53977 54.1946 4.03125 54.811 3.68182C55.4275 3.32955 56.1235 3.15341 56.8991 3.15341C57.669 3.15341 58.3622 3.32955 58.9787 3.68182C59.598 4.03125 60.0866 4.53977 60.4446 5.20739C60.8054 5.875 60.9858 6.68466 60.9858 7.63636ZM59.115 7.63636C59.115 7.01989 59.0227 6.5 58.838 6.0767C58.6562 5.65341 58.3991 5.33239 58.0667 5.11364C57.7343 4.89489 57.3451 4.78551 56.8991 4.78551C56.4531 4.78551 56.0639 4.89489 55.7315 5.11364C55.3991 5.33239 55.1406 5.65341 54.9559 6.0767C54.7741 6.5 54.6832 7.01989 54.6832 7.63636C54.6832 8.25284 54.7741 8.77273 54.9559 9.19602C55.1406 9.61932 55.3991 9.94034 55.7315 10.1591C56.0639 10.3778 56.4531 10.4872 56.8991 10.4872C57.3451 10.4872 57.7343 10.3778 58.0667 10.1591C58.3991 9.94034 58.6562 9.61932 58.838 9.19602C59.0227 8.77273 59.115 8.25284 59.115 7.63636ZM61.6326 12V3.27273H65.0758C65.7349 3.27273 66.2974 3.39062 66.7633 3.62642C67.232 3.85937 67.5886 4.19034 67.8329 4.61932C68.08 5.04545 68.2036 5.54687 68.2036 6.12358C68.2036 6.70312 68.0786 7.2017 67.8286 7.61932C67.5786 8.03409 67.2164 8.35227 66.742 8.57386C66.2704 8.79545 65.6993 8.90625 65.0289 8.90625H62.7235V7.4233H64.7306C65.0829 7.4233 65.3755 7.375 65.6084 7.27841C65.8414 7.18182 66.0147 7.03693 66.1283 6.84375C66.2448 6.65057 66.303 6.41051 66.303 6.12358C66.303 5.83381 66.2448 5.58949 66.1283 5.39062C66.0147 5.19176 65.84 5.04119 65.6042 4.93892C65.3712 4.83381 65.0772 4.78125 64.7221 4.78125H63.4778V12H61.6326ZM66.3457 8.02841L68.5147 12H66.4778L64.3556 8.02841H66.3457Z" fill="#242424"/>
<path d="M6.26976 2.24H2.69024C2.57885 2.24 2.47202 2.28425 2.39326 2.36302C2.31449 2.44178 2.27024 2.54861 2.27024 2.66V6.3C2.27024 6.41139 2.31449 6.51822 2.39326 6.59698C2.47202 6.67575 2.57885 6.72 2.69024 6.72H6.26976C6.38115 6.72 6.48798 6.67575 6.56674 6.59698C6.64551 6.51822 6.68976 6.41139 6.68976 6.3V2.66C6.68976 2.54861 6.64551 2.44178 6.56674 2.36302C6.48798 2.28425 6.38115 2.24 6.26976 2.24ZM5.84976 5.88H3.11024V3.08H5.84976V5.88ZM5.04 3.92H3.92V5.04H5.04V3.92ZM0.56 5.6C0.708521 5.6 0.850959 5.541 0.95598 5.43598C1.061 5.33096 1.12 5.18852 1.12 5.04V1.68C1.12015 1.53152 1.1792 1.38917 1.28418 1.28418C1.38917 1.1792 1.53152 1.12015 1.68 1.12H5.04C5.18852 1.12 5.33096 1.061 5.43598 0.95598C5.541 0.850959 5.6 0.708521 5.6 0.56C5.6 0.411479 5.541 0.269041 5.43598 0.16402C5.33096 0.0589998 5.18852 0 5.04 0H1.68C1.23457 0.00044476 0.807517 0.177587 0.492552 0.492552C0.177587 0.807517 0.00044476 1.23457 0 1.68V5.04C0 5.18852 0.0589998 5.33096 0.16402 5.43598C0.269041 5.541 0.411479 5.6 0.56 5.6ZM6.26976 7.28H2.69024C2.57885 7.28 2.47202 7.32425 2.39326 7.40302C2.31449 7.48178 2.27024 7.58861 2.27024 7.7V11.34C2.27024 11.4514 2.31449 11.5582 2.39326 11.637C2.47202 11.7158 2.57885 11.76 2.69024 11.76H6.26976C6.38115 11.76 6.48798 11.7158 6.56674 11.637C6.64551 11.5582 6.68976 11.4514 6.68976 11.34V7.7C6.68976 7.58861 6.64551 7.48178 6.56674 7.40302C6.48798 7.32425 6.38115 7.28 6.26976 7.28ZM5.84976 10.92H3.11024V8.12H5.84976V10.92ZM5.04 8.96H3.92V10.08H5.04V8.96ZM5.04 12.88H1.68C1.53152 12.8799 1.38917 12.8208 1.28418 12.7158C1.1792 12.6108 1.12015 12.4685 1.12 12.32V8.96C1.12 8.81148 1.061 8.66904 0.95598 8.56402C0.850959 8.459 0.708521 8.4 0.56 8.4C0.411479 8.4 0.269041 8.459 0.16402 8.56402C0.0589998 8.66904 0 8.81148 0 8.96V12.32C0.00044476 12.7654 0.177587 13.1925 0.492552 13.5074C0.807517 13.8224 1.23457 13.9996 1.68 14H5.04C5.18852 14 5.33096 13.941 5.43598 13.836C5.541 13.731 5.6 13.5885 5.6 13.44C5.6 13.2915 5.541 13.149 5.43598 13.044C5.33096 12.939 5.18852 12.88 5.04 12.88ZM13.44 8.4C13.2915 8.4 13.149 8.459 13.044 8.56402C12.939 8.66904 12.88 8.81148 12.88 8.96V12.32C12.8799 12.4685 12.8208 12.6108 12.7158 12.7158C12.6108 12.8208 12.4685 12.8799 12.32 12.88H8.96C8.81148 12.88 8.66904 12.939 8.56402 13.044C8.459 13.149 8.4 13.2915 8.4 13.44C8.4 13.5885 8.459 13.731 8.56402 13.836C8.66904 13.941 8.81148 14 8.96 14H12.32C12.7654 13.9996 13.1925 13.8224 13.5074 13.5074C13.8224 13.1925 13.9996 12.7654 14 12.32V8.96C14 8.81148 13.941 8.66904 13.836 8.56402C13.731 8.459 13.5885 8.4 13.44 8.4ZM8.68 10.36H7.56V11.48H8.68V10.36ZM7.56 8.67664H8.68V7.55664H7.56V8.67664ZM12.32 0H8.96C8.81148 0 8.66904 0.0589998 8.56402 0.16402C8.459 0.269041 8.4 0.411479 8.4 0.56C8.4 0.708521 8.459 0.850959 8.56402 0.95598C8.66904 1.061 8.81148 1.12 8.96 1.12H12.32C12.4685 1.12015 12.6108 1.1792 12.7158 1.28418C12.8208 1.38917 12.8799 1.53152 12.88 1.68V5.04C12.88 5.18852 12.939 5.33096 13.044 5.43598C13.149 5.541 13.2915 5.6 13.44 5.6C13.5885 5.6 13.731 5.541 13.836 5.43598C13.941 5.33096 14 5.18852 14 5.04V1.68C13.9996 1.23457 13.8224 0.807517 13.5074 0.492552C13.1925 0.177587 12.7654 0.00044476 12.32 0ZM8.96 5.04H10.08V3.92H8.96V5.04ZM10.08 10.08V8.96H8.96V10.08H10.08ZM11.3098 6.72C11.4212 6.72 11.528 6.67575 11.6067 6.59698C11.6855 6.51822 11.7298 6.41139 11.7298 6.3V2.66C11.7298 2.54861 11.6855 2.44178 11.6067 2.36302C11.528 2.28425 11.4212 2.24 11.3098 2.24H7.73024C7.61885 2.24 7.51202 2.28425 7.43326 2.36302C7.35449 2.44178 7.31024 2.54861 7.31024 2.66V6.3C7.31024 6.41139 7.35449 6.51822 7.43326 6.59698C7.51202 6.67575 7.61885 6.72 7.73024 6.72H11.3098ZM8.15024 3.08H10.8898V5.88H8.15024V3.08ZM11.48 7.55664H10.36V8.67664H11.48V7.55664ZM10.36 11.48H11.48V10.36H10.36V11.48Z" fill="#242424"/>
</svg>
