<svg width="48" height="10" viewBox="0 0 48 10" fill="none" xmlns="http://www.w3.org/2000/svg">
<path d="M1.974 2.652H0.084V1.08H5.652V2.652H3.768V9H1.974V2.652ZM6.39225 6.924C6.40425 7.1 6.46025 7.256 6.56025 7.392C6.66025 7.528 6.79825 7.636 6.97425 7.716C7.15425 7.792 7.36625 7.83 7.61025 7.83C7.84225 7.83 8.05025 7.806 8.23425 7.758C8.42225 7.71 8.58425 7.65 8.72025 7.578C8.86025 7.506 8.96825 7.432 9.04425 7.356L9.75225 8.484C9.65225 8.592 9.51025 8.698 9.32625 8.802C9.14625 8.902 8.90825 8.984 8.61225 9.048C8.31625 9.112 7.94225 9.144 7.49025 9.144C6.94625 9.144 6.46225 9.042 6.03825 8.838C5.61425 8.634 5.28025 8.334 5.03625 7.938C4.79225 7.542 4.67025 7.058 4.67025 6.486C4.67025 6.006 4.77425 5.574 4.98225 5.19C5.19425 4.802 5.50025 4.496 5.90025 4.272C6.30025 4.044 6.78225 3.93 7.34625 3.93C7.88225 3.93 8.34625 4.028 8.73825 4.224C9.13425 4.42 9.43825 4.712 9.65025 5.1C9.86625 5.484 9.97425 5.964 9.97425 6.54C9.97425 6.572 9.97225 6.636 9.96825 6.732C9.96825 6.828 9.96425 6.892 9.95625 6.924H6.39225ZM8.25825 5.97C8.25425 5.842 8.22025 5.716 8.15625 5.592C8.09225 5.464 7.99625 5.36 7.86825 5.28C7.74025 5.196 7.57625 5.154 7.37625 5.154C7.17625 5.154 7.00625 5.194 6.86625 5.274C6.73025 5.35 6.62625 5.45 6.55425 5.574C6.48225 5.698 6.44225 5.83 6.43425 5.97H8.25825ZM12.8668 7.71C13.0948 7.71 13.2828 7.672 13.4308 7.596C13.5788 7.516 13.6788 7.452 13.7308 7.404L14.5648 8.64C14.5008 8.692 14.3908 8.76 14.2348 8.844C14.0788 8.924 13.8828 8.994 13.6468 9.054C13.4148 9.114 13.1488 9.144 12.8488 9.144C12.2848 9.144 11.7888 9.038 11.3608 8.826C10.9328 8.61 10.5988 8.306 10.3588 7.914C10.1228 7.522 10.0048 7.062 10.0048 6.534C10.0048 6.002 10.1228 5.542 10.3588 5.154C10.5988 4.766 10.9328 4.466 11.3608 4.254C11.7888 4.038 12.2848 3.93 12.8488 3.93C13.1448 3.93 13.4088 3.962 13.6408 4.026C13.8768 4.086 14.0748 4.156 14.2348 4.236C14.3948 4.312 14.5068 4.378 14.5708 4.434L13.7188 5.682C13.6908 5.654 13.6388 5.614 13.5628 5.562C13.4908 5.51 13.3968 5.464 13.2808 5.424C13.1648 5.384 13.0268 5.364 12.8668 5.364C12.6708 5.364 12.4868 5.414 12.3148 5.514C12.1468 5.614 12.0108 5.752 11.9068 5.928C11.8028 6.104 11.7508 6.306 11.7508 6.534C11.7508 6.762 11.8028 6.966 11.9068 7.146C12.0108 7.322 12.1468 7.46 12.3148 7.56C12.4868 7.66 12.6708 7.71 12.8668 7.71ZM18.0182 3.93C18.3622 3.93 18.6982 4 19.0262 4.14C19.3542 4.28 19.6242 4.502 19.8362 4.806C20.0482 5.106 20.1542 5.502 20.1542 5.994V9H18.3302V6.294C18.3302 5.942 18.2502 5.678 18.0902 5.502C17.9342 5.322 17.7202 5.232 17.4482 5.232C17.2682 5.232 17.0962 5.28 16.9322 5.376C16.7682 5.468 16.6342 5.6 16.5302 5.772C16.4302 5.94 16.3802 6.134 16.3802 6.354V9H14.5502V0.744H16.3802V4.8C16.4242 4.668 16.5222 4.536 16.6742 4.404C16.8302 4.268 17.0242 4.156 17.2562 4.068C17.4922 3.976 17.7462 3.93 18.0182 3.93ZM24.2607 4.572H28.2987V5.076C28.2987 5.644 28.2027 6.174 28.0107 6.666C27.8227 7.158 27.5527 7.59 27.2007 7.962C26.8487 8.334 26.4287 8.624 25.9407 8.832C25.4527 9.04 24.9127 9.144 24.3207 9.144C23.7087 9.144 23.1527 9.04 22.6527 8.832C22.1567 8.62 21.7287 8.326 21.3687 7.95C21.0087 7.574 20.7327 7.138 20.5407 6.642C20.3487 6.142 20.2527 5.606 20.2527 5.034C20.2527 4.466 20.3487 3.934 20.5407 3.438C20.7327 2.938 21.0087 2.502 21.3687 2.13C21.7287 1.754 22.1567 1.462 22.6527 1.254C23.1527 1.042 23.7087 0.935999 24.3207 0.935999C24.8207 0.935999 25.2607 0.99 25.6407 1.098C26.0247 1.206 26.3547 1.35 26.6307 1.53C26.9067 1.71 27.1407 1.908 27.3327 2.124C27.5247 2.336 27.6847 2.544 27.8127 2.748L26.1087 3.552C25.9447 3.3 25.7207 3.08 25.4367 2.892C25.1567 2.704 24.7847 2.61 24.3207 2.61C23.9967 2.61 23.6987 2.674 23.4267 2.802C23.1587 2.93 22.9267 3.106 22.7307 3.33C22.5347 3.55 22.3827 3.808 22.2747 4.104C22.1707 4.396 22.1187 4.706 22.1187 5.034C22.1187 5.366 22.1707 5.678 22.2747 5.97C22.3827 6.262 22.5347 6.52 22.7307 6.744C22.9267 6.968 23.1587 7.144 23.4267 7.272C23.6987 7.396 23.9967 7.458 24.3207 7.458C24.6047 7.458 24.8627 7.422 25.0947 7.35C25.3267 7.278 25.5267 7.174 25.6947 7.038C25.8667 6.902 26.0007 6.742 26.0967 6.558C26.1967 6.37 26.2567 6.164 26.2767 5.94H24.2607V4.572ZM30.3429 6.354C30.3429 6.746 30.4169 7.06 30.5649 7.296C30.7129 7.528 30.9609 7.644 31.3089 7.644C31.6649 7.644 31.9149 7.528 32.0589 7.296C32.2069 7.06 32.2809 6.746 32.2809 6.354V4.074H34.0809V6.546C34.0809 7.074 33.9709 7.534 33.7509 7.926C33.5349 8.314 33.2209 8.614 32.8089 8.826C32.3969 9.038 31.8969 9.144 31.3089 9.144C30.7249 9.144 30.2269 9.038 29.8149 8.826C29.4029 8.614 29.0889 8.314 28.8729 7.926C28.6569 7.534 28.5489 7.074 28.5489 6.546V4.074H30.3429V6.354ZM34.5292 9V4.074H36.3532V9H34.5292ZM35.4652 3.06C35.1772 3.06 34.9332 2.96 34.7332 2.76C34.5332 2.556 34.4332 2.314 34.4332 2.034C34.4332 1.754 34.5332 1.512 34.7332 1.308C34.9372 1.1 35.1812 0.995999 35.4652 0.995999C35.6532 0.995999 35.8252 1.044 35.9812 1.14C36.1372 1.232 36.2632 1.356 36.3592 1.512C36.4552 1.668 36.5032 1.842 36.5032 2.034C36.5032 2.314 36.4012 2.556 36.1972 2.76C35.9932 2.96 35.7492 3.06 35.4652 3.06ZM39.0018 9.144C38.5258 9.144 38.1118 9.028 37.7598 8.796C37.4078 8.56 37.1338 8.246 36.9378 7.854C36.7458 7.458 36.6498 7.02 36.6498 6.54C36.6498 6.06 36.7458 5.624 36.9378 5.232C37.1338 4.836 37.4078 4.52 37.7598 4.284C38.1118 4.048 38.5258 3.93 39.0018 3.93C39.3178 3.93 39.5978 3.98 39.8418 4.08C40.0858 4.176 40.2838 4.292 40.4358 4.428C40.5878 4.56 40.6798 4.682 40.7118 4.794V0.744H42.5358V9H40.7298V8.202C40.6538 8.35 40.5298 8.498 40.3578 8.646C40.1858 8.79 39.9838 8.908 39.7518 9C39.5198 9.096 39.2698 9.144 39.0018 9.144ZM39.5598 7.71C39.7798 7.71 39.9758 7.66 40.1478 7.56C40.3238 7.46 40.4618 7.322 40.5618 7.146C40.6618 6.966 40.7118 6.764 40.7118 6.54C40.7118 6.316 40.6618 6.116 40.5618 5.94C40.4618 5.76 40.3238 5.62 40.1478 5.52C39.9758 5.416 39.7798 5.364 39.5598 5.364C39.3478 5.364 39.1558 5.416 38.9838 5.52C38.8158 5.62 38.6818 5.76 38.5818 5.94C38.4858 6.116 38.4378 6.316 38.4378 6.54C38.4378 6.764 38.4858 6.966 38.5818 7.146C38.6818 7.322 38.8158 7.46 38.9838 7.56C39.1558 7.66 39.3478 7.71 39.5598 7.71ZM44.3249 6.924C44.3369 7.1 44.3929 7.256 44.4929 7.392C44.5929 7.528 44.7309 7.636 44.9069 7.716C45.0869 7.792 45.2989 7.83 45.5429 7.83C45.7749 7.83 45.9829 7.806 46.1669 7.758C46.3549 7.71 46.5169 7.65 46.6529 7.578C46.7929 7.506 46.9009 7.432 46.9769 7.356L47.6849 8.484C47.5849 8.592 47.4429 8.698 47.2589 8.802C47.0789 8.902 46.8409 8.984 46.5449 9.048C46.2489 9.112 45.8749 9.144 45.4229 9.144C44.8789 9.144 44.3949 9.042 43.9709 8.838C43.5469 8.634 43.2129 8.334 42.9689 7.938C42.7249 7.542 42.6029 7.058 42.6029 6.486C42.6029 6.006 42.7069 5.574 42.9149 5.19C43.1269 4.802 43.4329 4.496 43.8329 4.272C44.2329 4.044 44.7149 3.93 45.2789 3.93C45.8149 3.93 46.2789 4.028 46.6709 4.224C47.0669 4.42 47.3709 4.712 47.5829 5.1C47.7989 5.484 47.9069 5.964 47.9069 6.54C47.9069 6.572 47.9049 6.636 47.9009 6.732C47.9009 6.828 47.8969 6.892 47.8889 6.924H44.3249ZM46.1909 5.97C46.1869 5.842 46.1529 5.716 46.0889 5.592C46.0249 5.464 45.9289 5.36 45.8009 5.28C45.6729 5.196 45.5089 5.154 45.3089 5.154C45.1089 5.154 44.9389 5.194 44.7989 5.274C44.6629 5.35 44.5589 5.45 44.4869 5.574C44.4149 5.698 44.3749 5.83 44.3669 5.97H46.1909Z" fill="white"/>
</svg>
