<svg width="82" height="12" viewBox="0 0 82 12" fill="none" xmlns="http://www.w3.org/2000/svg">
<path d="M0.432 1.08H2.754V9H0.432V1.08ZM4.01878 1.08H6.34678V6.984H9.05278V9H4.01878V1.08ZM12.7754 9.144C12.2154 9.144 11.7174 9.036 11.2814 8.82C10.8454 8.6 10.5034 8.296 10.2554 7.908C10.0074 7.516 9.88341 7.064 9.88341 6.552C9.88341 6.04 10.0074 5.588 10.2554 5.196C10.5034 4.8 10.8454 4.49 11.2814 4.266C11.7174 4.042 12.2154 3.93 12.7754 3.93C13.3354 3.93 13.8294 4.042 14.2574 4.266C14.6854 4.49 15.0194 4.8 15.2594 5.196C15.5034 5.588 15.6254 6.04 15.6254 6.552C15.6254 7.064 15.5034 7.516 15.2594 7.908C15.0194 8.296 14.6854 8.6 14.2574 8.82C13.8294 9.036 13.3354 9.144 12.7754 9.144ZM12.7754 7.224C12.9074 7.224 13.0194 7.198 13.1114 7.146C13.2034 7.09 13.2734 7.01 13.3214 6.906C13.3734 6.802 13.3994 6.68 13.3994 6.54C13.3994 6.4 13.3734 6.278 13.3214 6.174C13.2734 6.07 13.2034 5.99 13.1114 5.934C13.0194 5.878 12.9074 5.85 12.7754 5.85C12.6434 5.85 12.5294 5.878 12.4334 5.934C12.3414 5.99 12.2694 6.07 12.2174 6.174C12.1654 6.278 12.1394 6.4 12.1394 6.54C12.1394 6.68 12.1654 6.802 12.2174 6.906C12.2694 7.01 12.3414 7.09 12.4334 7.146C12.5294 7.198 12.6434 7.224 12.7754 7.224ZM16.0078 4.074H18.5338L19.4338 6.87L20.3398 4.074H22.8538L20.8198 9H18.0538L16.0078 4.074ZM25.4222 7.002C25.4422 7.098 25.4922 7.18 25.5722 7.248C25.6562 7.312 25.7622 7.362 25.8902 7.398C26.0222 7.434 26.1702 7.452 26.3342 7.452C26.5102 7.452 26.6822 7.444 26.8502 7.428C27.0182 7.412 27.1722 7.386 27.3122 7.35C27.4522 7.314 27.5642 7.268 27.6482 7.212L28.4942 8.694C28.4182 8.742 28.2922 8.802 28.1162 8.874C27.9442 8.942 27.7002 9.004 27.3842 9.06C27.0722 9.116 26.6682 9.144 26.1722 9.144C25.6162 9.144 25.1122 9.05 24.6602 8.862C24.2082 8.674 23.8482 8.384 23.5802 7.992C23.3162 7.596 23.1842 7.094 23.1842 6.486C23.1842 6.006 23.2942 5.574 23.5142 5.19C23.7342 4.802 24.0522 4.496 24.4682 4.272C24.8842 4.044 25.3882 3.93 25.9802 3.93C26.5522 3.93 27.0462 4.026 27.4622 4.218C27.8822 4.41 28.2042 4.706 28.4282 5.106C28.6562 5.502 28.7702 6.01 28.7702 6.63C28.7702 6.662 28.7682 6.726 28.7642 6.822C28.7642 6.914 28.7602 6.974 28.7522 7.002H25.4222ZM26.5442 6.036C26.5402 5.904 26.5142 5.794 26.4662 5.706C26.4222 5.618 26.3622 5.554 26.2862 5.514C26.2102 5.47 26.1202 5.448 26.0162 5.448C25.9242 5.448 25.8362 5.468 25.7522 5.508C25.6722 5.544 25.6062 5.606 25.5542 5.694C25.5022 5.778 25.4742 5.892 25.4702 6.036H26.5442ZM38.8523 1.08V9H36.5303V5.064L36.6263 3.432L36.2603 5.334L35.3303 8.232H33.0563L32.1323 5.334L31.7663 3.432L31.8623 5.064V9H29.5403V1.08H32.8643L34.0643 5.718L34.1963 6.504L34.3283 5.718L35.5283 1.08H38.8523ZM43.8548 9V8.31C43.8148 8.382 43.7248 8.486 43.5848 8.622C43.4488 8.754 43.2688 8.874 43.0448 8.982C42.8248 9.09 42.5668 9.144 42.2708 9.144C41.7788 9.144 41.3548 9.022 40.9988 8.778C40.6468 8.53 40.3768 8.208 40.1888 7.812C40.0008 7.416 39.9068 6.992 39.9068 6.54C39.9068 6.088 40.0008 5.664 40.1888 5.268C40.3768 4.872 40.6468 4.55 40.9988 4.302C41.3548 4.054 41.7788 3.93 42.2708 3.93C42.5508 3.93 42.7948 3.97 43.0028 4.05C43.2108 4.126 43.3828 4.22 43.5188 4.332C43.6588 4.44 43.7628 4.546 43.8308 4.65V4.074H46.1828V9H43.8548ZM42.2228 6.54C42.2228 6.676 42.2568 6.804 42.3248 6.924C42.3928 7.044 42.4868 7.14 42.6068 7.212C42.7268 7.284 42.8668 7.32 43.0268 7.32C43.1868 7.32 43.3268 7.284 43.4468 7.212C43.5668 7.14 43.6608 7.044 43.7288 6.924C43.7968 6.804 43.8308 6.676 43.8308 6.54C43.8308 6.404 43.7968 6.276 43.7288 6.156C43.6608 6.036 43.5668 5.94 43.4468 5.868C43.3268 5.792 43.1868 5.754 43.0268 5.754C42.8668 5.754 42.7268 5.792 42.6068 5.868C42.4868 5.94 42.3928 6.036 42.3248 6.156C42.2568 6.276 42.2228 6.404 42.2228 6.54ZM50.9998 3.93C51.3638 3.93 51.7158 4.002 52.0558 4.146C52.3998 4.286 52.6818 4.512 52.9018 4.824C53.1258 5.132 53.2378 5.538 53.2378 6.042V9H50.8738V6.408C50.8738 6.152 50.8098 5.95 50.6818 5.802C50.5578 5.65 50.3898 5.574 50.1778 5.574C50.0378 5.574 49.9078 5.608 49.7878 5.676C49.6718 5.744 49.5798 5.84 49.5118 5.964C49.4438 6.088 49.4098 6.236 49.4098 6.408V9H47.0458V4.074H49.4098V4.692C49.4618 4.564 49.5638 4.442 49.7158 4.326C49.8678 4.21 50.0558 4.116 50.2798 4.044C50.5038 3.968 50.7438 3.93 50.9998 3.93ZM56.3299 6.216C56.3299 6.52 56.3779 6.764 56.4739 6.948C56.5739 7.132 56.7599 7.224 57.0319 7.224C57.3119 7.224 57.4999 7.132 57.5959 6.948C57.6919 6.764 57.7399 6.52 57.7399 6.216V4.074H60.0679V6.444C60.0679 7.004 59.9479 7.486 59.7079 7.89C59.4719 8.294 59.1279 8.604 58.6759 8.82C58.2239 9.036 57.6759 9.144 57.0319 9.144C56.3919 9.144 55.8459 9.036 55.3939 8.82C54.9459 8.604 54.6019 8.294 54.3619 7.89C54.1259 7.486 54.0079 7.004 54.0079 6.444V4.074H56.3299V6.216ZM64.6908 9V8.31C64.6508 8.382 64.5608 8.486 64.4208 8.622C64.2848 8.754 64.1048 8.874 63.8808 8.982C63.6608 9.09 63.4028 9.144 63.1068 9.144C62.6148 9.144 62.1908 9.022 61.8348 8.778C61.4828 8.53 61.2128 8.208 61.0248 7.812C60.8368 7.416 60.7428 6.992 60.7428 6.54C60.7428 6.088 60.8368 5.664 61.0248 5.268C61.2128 4.872 61.4828 4.55 61.8348 4.302C62.1908 4.054 62.6148 3.93 63.1068 3.93C63.3868 3.93 63.6308 3.97 63.8388 4.05C64.0468 4.126 64.2188 4.22 64.3548 4.332C64.4948 4.44 64.5988 4.546 64.6668 4.65V4.074H67.0188V9H64.6908ZM63.0588 6.54C63.0588 6.676 63.0928 6.804 63.1608 6.924C63.2288 7.044 63.3228 7.14 63.4428 7.212C63.5628 7.284 63.7028 7.32 63.8628 7.32C64.0228 7.32 64.1628 7.284 64.2828 7.212C64.4028 7.14 64.4968 7.044 64.5648 6.924C64.6328 6.804 64.6668 6.676 64.6668 6.54C64.6668 6.404 64.6328 6.276 64.5648 6.156C64.4968 6.036 64.4028 5.94 64.2828 5.868C64.1628 5.792 64.0228 5.754 63.8628 5.754C63.7028 5.754 63.5628 5.792 63.4428 5.868C63.3228 5.94 63.2288 6.036 63.1608 6.156C63.0928 6.276 63.0588 6.404 63.0588 6.54ZM70.3418 9H67.9778V0.744H70.3418V9Z" fill="#242424"/>
<path d="M78.7887 0.058418C77.7741 0.241442 76.9989 1.46403 76.9989 1.46403C76.9989 1.46403 76.2201 0.241442 75.2091 0.058418C72.7047 -0.391816 71.6723 1.85569 72.0903 3.52854C72.7083 5.99932 75.6806 8.2139 76.6738 8.8984C76.8703 9.03387 77.1275 9.03387 77.3275 8.8984C78.3243 8.2139 81.2966 5.99932 81.911 3.52854C82.3255 1.85569 81.293 -0.391816 78.7887 0.058418Z" fill="#F8312F"/>
</svg>
