<svg width="49" height="9" viewBox="0 0 49 9" fill="none" xmlns="http://www.w3.org/2000/svg">
<path d="M2.474 2.152H0.584V0.58H6.152V2.152H4.268V8.5H2.474V2.152ZM6.89225 6.424C6.90425 6.6 6.96025 6.756 7.06025 6.892C7.16025 7.028 7.29825 7.136 7.47425 7.216C7.65425 7.292 7.86625 7.33 8.11025 7.33C8.34225 7.33 8.55025 7.306 8.73425 7.258C8.92225 7.21 9.08425 7.15 9.22025 7.078C9.36025 7.006 9.46825 6.932 9.54425 6.856L10.2522 7.984C10.1523 8.092 10.0103 8.198 9.82625 8.302C9.64625 8.402 9.40825 8.484 9.11225 8.548C8.81625 8.612 8.44225 8.644 7.99025 8.644C7.44625 8.644 6.96225 8.542 6.53825 8.338C6.11425 8.134 5.78025 7.834 5.53625 7.438C5.29225 7.042 5.17025 6.558 5.17025 5.986C5.17025 5.506 5.27425 5.074 5.48225 4.69C5.69425 4.302 6.00025 3.996 6.40025 3.772C6.80025 3.544 7.28225 3.43 7.84625 3.43C8.38225 3.43 8.84625 3.528 9.23825 3.724C9.63425 3.92 9.93825 4.212 10.1502 4.6C10.3662 4.984 10.4742 5.464 10.4742 6.04C10.4742 6.072 10.4722 6.136 10.4683 6.232C10.4683 6.328 10.4642 6.392 10.4562 6.424H6.89225ZM8.75825 5.47C8.75425 5.342 8.72025 5.216 8.65625 5.092C8.59225 4.964 8.49625 4.86 8.36825 4.78C8.24025 4.696 8.07625 4.654 7.87625 4.654C7.67625 4.654 7.50625 4.694 7.36625 4.774C7.23025 4.85 7.12625 4.95 7.05425 5.074C6.98225 5.198 6.94225 5.33 6.93425 5.47H8.75825ZM13.3668 7.21C13.5948 7.21 13.7828 7.172 13.9308 7.096C14.0788 7.016 14.1788 6.952 14.2308 6.904L15.0648 8.14C15.0008 8.192 14.8908 8.26 14.7348 8.344C14.5788 8.424 14.3828 8.494 14.1468 8.554C13.9148 8.614 13.6488 8.644 13.3488 8.644C12.7848 8.644 12.2888 8.538 11.8608 8.326C11.4328 8.11 11.0988 7.806 10.8588 7.414C10.6228 7.022 10.5048 6.562 10.5048 6.034C10.5048 5.502 10.6228 5.042 10.8588 4.654C11.0988 4.266 11.4328 3.966 11.8608 3.754C12.2888 3.538 12.7848 3.43 13.3488 3.43C13.6448 3.43 13.9088 3.462 14.1408 3.526C14.3768 3.586 14.5748 3.656 14.7348 3.736C14.8948 3.812 15.0068 3.878 15.0708 3.934L14.2188 5.182C14.1908 5.154 14.1388 5.114 14.0628 5.062C13.9908 5.01 13.8968 4.964 13.7808 4.924C13.6648 4.884 13.5268 4.864 13.3668 4.864C13.1708 4.864 12.9868 4.914 12.8148 5.014C12.6468 5.114 12.5108 5.252 12.4068 5.428C12.3028 5.604 12.2508 5.806 12.2508 6.034C12.2508 6.262 12.3028 6.466 12.4068 6.646C12.5108 6.822 12.6468 6.96 12.8148 7.06C12.9868 7.16 13.1708 7.21 13.3668 7.21ZM18.5182 3.43C18.8622 3.43 19.1982 3.5 19.5262 3.64C19.8542 3.78 20.1242 4.002 20.3362 4.306C20.5482 4.606 20.6542 5.002 20.6542 5.494V8.5H18.8302V5.794C18.8302 5.442 18.7502 5.178 18.5902 5.002C18.4342 4.822 18.2202 4.732 17.9482 4.732C17.7682 4.732 17.5962 4.78 17.4322 4.876C17.2682 4.968 17.1342 5.1 17.0302 5.272C16.9302 5.44 16.8802 5.634 16.8802 5.854V8.5H15.0502V0.244H16.8802V4.3C16.9242 4.168 17.0222 4.036 17.1742 3.904C17.3302 3.768 17.5242 3.656 17.7562 3.568C17.9922 3.476 18.2462 3.43 18.5182 3.43ZM24.7607 4.072H28.7987V4.576C28.7987 5.144 28.7027 5.674 28.5107 6.166C28.3227 6.658 28.0527 7.09 27.7007 7.462C27.3487 7.834 26.9287 8.124 26.4407 8.332C25.9527 8.54 25.4127 8.644 24.8207 8.644C24.2087 8.644 23.6527 8.54 23.1527 8.332C22.6567 8.12 22.2287 7.826 21.8687 7.45C21.5087 7.074 21.2327 6.638 21.0407 6.142C20.8487 5.642 20.7527 5.106 20.7527 4.534C20.7527 3.966 20.8487 3.434 21.0407 2.938C21.2327 2.438 21.5087 2.002 21.8687 1.63C22.2287 1.254 22.6567 0.962 23.1527 0.754C23.6527 0.542 24.2087 0.435999 24.8207 0.435999C25.3207 0.435999 25.7607 0.49 26.1407 0.598C26.5247 0.706 26.8547 0.85 27.1307 1.03C27.4067 1.21 27.6407 1.408 27.8327 1.624C28.0247 1.836 28.1847 2.044 28.3127 2.248L26.6087 3.052C26.4447 2.8 26.2207 2.58 25.9367 2.392C25.6567 2.204 25.2847 2.11 24.8207 2.11C24.4967 2.11 24.1987 2.174 23.9267 2.302C23.6587 2.43 23.4267 2.606 23.2307 2.83C23.0347 3.05 22.8827 3.308 22.7747 3.604C22.6707 3.896 22.6187 4.206 22.6187 4.534C22.6187 4.866 22.6707 5.178 22.7747 5.47C22.8827 5.762 23.0347 6.02 23.2307 6.244C23.4267 6.468 23.6587 6.644 23.9267 6.772C24.1987 6.896 24.4967 6.958 24.8207 6.958C25.1047 6.958 25.3627 6.922 25.5947 6.85C25.8267 6.778 26.0267 6.674 26.1947 6.538C26.3667 6.402 26.5007 6.242 26.5967 6.058C26.6967 5.87 26.7567 5.664 26.7767 5.44H24.7607V4.072ZM30.8429 5.854C30.8429 6.246 30.9169 6.56 31.0649 6.796C31.2129 7.028 31.4609 7.144 31.8089 7.144C32.1649 7.144 32.4149 7.028 32.5589 6.796C32.7069 6.56 32.7809 6.246 32.7809 5.854V3.574H34.5809V6.046C34.5809 6.574 34.4709 7.034 34.2509 7.426C34.0349 7.814 33.7209 8.114 33.3089 8.326C32.8969 8.538 32.3969 8.644 31.8089 8.644C31.2249 8.644 30.7269 8.538 30.3149 8.326C29.9029 8.114 29.5889 7.814 29.3729 7.426C29.1569 7.034 29.0489 6.574 29.0489 6.046V3.574H30.8429V5.854ZM35.0292 8.5V3.574H36.8532V8.5H35.0292ZM35.9652 2.56C35.6772 2.56 35.4332 2.46 35.2332 2.26C35.0332 2.056 34.9332 1.814 34.9332 1.534C34.9332 1.254 35.0332 1.012 35.2332 0.808C35.4372 0.599999 35.6812 0.495999 35.9652 0.495999C36.1532 0.495999 36.3252 0.543999 36.4812 0.64C36.6372 0.732 36.7632 0.856 36.8592 1.012C36.9552 1.168 37.0032 1.342 37.0032 1.534C37.0032 1.814 36.9012 2.056 36.6972 2.26C36.4932 2.46 36.2492 2.56 35.9652 2.56ZM39.5018 8.644C39.0258 8.644 38.6118 8.528 38.2598 8.296C37.9078 8.06 37.6338 7.746 37.4378 7.354C37.2458 6.958 37.1498 6.52 37.1498 6.04C37.1498 5.56 37.2458 5.124 37.4378 4.732C37.6338 4.336 37.9078 4.02 38.2598 3.784C38.6118 3.548 39.0258 3.43 39.5018 3.43C39.8178 3.43 40.0978 3.48 40.3418 3.58C40.5858 3.676 40.7838 3.792 40.9358 3.928C41.0878 4.06 41.1798 4.182 41.2118 4.294V0.244H43.0358V8.5H41.2298V7.702C41.1538 7.85 41.0298 7.998 40.8578 8.146C40.6858 8.29 40.4838 8.408 40.2518 8.5C40.0198 8.596 39.7698 8.644 39.5018 8.644ZM40.0598 7.21C40.2798 7.21 40.4758 7.16 40.6478 7.06C40.8238 6.96 40.9618 6.822 41.0618 6.646C41.1618 6.466 41.2118 6.264 41.2118 6.04C41.2118 5.816 41.1618 5.616 41.0618 5.44C40.9618 5.26 40.8238 5.12 40.6478 5.02C40.4758 4.916 40.2798 4.864 40.0598 4.864C39.8478 4.864 39.6558 4.916 39.4838 5.02C39.3158 5.12 39.1818 5.26 39.0818 5.44C38.9858 5.616 38.9378 5.816 38.9378 6.04C38.9378 6.264 38.9858 6.466 39.0818 6.646C39.1818 6.822 39.3158 6.96 39.4838 7.06C39.6558 7.16 39.8478 7.21 40.0598 7.21ZM44.8249 6.424C44.8369 6.6 44.8929 6.756 44.9929 6.892C45.0929 7.028 45.2309 7.136 45.4069 7.216C45.5869 7.292 45.7989 7.33 46.0429 7.33C46.2749 7.33 46.4829 7.306 46.6669 7.258C46.8549 7.21 47.0169 7.15 47.1529 7.078C47.2929 7.006 47.4009 6.932 47.4769 6.856L48.1849 7.984C48.0849 8.092 47.9429 8.198 47.7589 8.302C47.5789 8.402 47.3409 8.484 47.0449 8.548C46.7489 8.612 46.3749 8.644 45.9229 8.644C45.3789 8.644 44.8949 8.542 44.4709 8.338C44.0469 8.134 43.7129 7.834 43.4689 7.438C43.2249 7.042 43.1029 6.558 43.1029 5.986C43.1029 5.506 43.2069 5.074 43.4149 4.69C43.6269 4.302 43.9329 3.996 44.3329 3.772C44.7329 3.544 45.2149 3.43 45.7789 3.43C46.3149 3.43 46.7789 3.528 47.1709 3.724C47.5669 3.92 47.8709 4.212 48.0829 4.6C48.2989 4.984 48.4069 5.464 48.4069 6.04C48.4069 6.072 48.4049 6.136 48.4009 6.232C48.4009 6.328 48.3969 6.392 48.3889 6.424H44.8249ZM46.6909 5.47C46.6869 5.342 46.6529 5.216 46.5889 5.092C46.5249 4.964 46.4289 4.86 46.3009 4.78C46.1729 4.696 46.0089 4.654 45.8089 4.654C45.6089 4.654 45.4389 4.694 45.2989 4.774C45.1629 4.85 45.0589 4.95 44.9869 5.074C44.9149 5.198 44.8749 5.33 44.8669 5.47H46.6909Z" fill="#242424"/>
</svg>
