<svg width="40" height="10" viewBox="0 0 40 10" fill="none" xmlns="http://www.w3.org/2000/svg">
<path d="M1.974 2.652H0.084V1.08H5.652V2.652H3.768V9H1.974V2.652ZM6.39225 6.924C6.40425 7.1 6.46025 7.256 6.56025 7.392C6.66025 7.528 6.79825 7.636 6.97425 7.716C7.15425 7.792 7.36625 7.83 7.61025 7.83C7.84225 7.83 8.05025 7.806 8.23425 7.758C8.42225 7.71 8.58425 7.65 8.72025 7.578C8.86025 7.506 8.96825 7.432 9.04425 7.356L9.75225 8.484C9.65225 8.592 9.51025 8.698 9.32625 8.802C9.14625 8.902 8.90825 8.984 8.61225 9.048C8.31625 9.112 7.94225 9.144 7.49025 9.144C6.94625 9.144 6.46225 9.042 6.03825 8.838C5.61425 8.634 5.28025 8.334 5.03625 7.938C4.79225 7.542 4.67025 7.058 4.67025 6.486C4.67025 6.006 4.77425 5.574 4.98225 5.19C5.19425 4.802 5.50025 4.496 5.90025 4.272C6.30025 4.044 6.78225 3.93 7.34625 3.93C7.88225 3.93 8.34625 4.028 8.73825 4.224C9.13425 4.42 9.43825 4.712 9.65025 5.1C9.86625 5.484 9.97425 5.964 9.97425 6.54C9.97425 6.572 9.97225 6.636 9.96825 6.732C9.96825 6.828 9.96425 6.892 9.95625 6.924H6.39225ZM8.25825 5.97C8.25425 5.842 8.22025 5.716 8.15625 5.592C8.09225 5.464 7.99625 5.36 7.86825 5.28C7.74025 5.196 7.57625 5.154 7.37625 5.154C7.17625 5.154 7.00625 5.194 6.86625 5.274C6.73025 5.35 6.62625 5.45 6.55425 5.574C6.48225 5.698 6.44225 5.83 6.43425 5.97H8.25825ZM12.8668 7.71C13.0948 7.71 13.2828 7.672 13.4308 7.596C13.5788 7.516 13.6788 7.452 13.7308 7.404L14.5648 8.64C14.5008 8.692 14.3908 8.76 14.2348 8.844C14.0788 8.924 13.8828 8.994 13.6468 9.054C13.4148 9.114 13.1488 9.144 12.8488 9.144C12.2848 9.144 11.7888 9.038 11.3608 8.826C10.9328 8.61 10.5988 8.306 10.3588 7.914C10.1228 7.522 10.0048 7.062 10.0048 6.534C10.0048 6.002 10.1228 5.542 10.3588 5.154C10.5988 4.766 10.9328 4.466 11.3608 4.254C11.7888 4.038 12.2848 3.93 12.8488 3.93C13.1448 3.93 13.4088 3.962 13.6408 4.026C13.8768 4.086 14.0748 4.156 14.2348 4.236C14.3948 4.312 14.5068 4.378 14.5708 4.434L13.7188 5.682C13.6908 5.654 13.6388 5.614 13.5628 5.562C13.4908 5.51 13.3968 5.464 13.2808 5.424C13.1648 5.384 13.0268 5.364 12.8668 5.364C12.6708 5.364 12.4868 5.414 12.3148 5.514C12.1468 5.614 12.0108 5.752 11.9068 5.928C11.8028 6.104 11.7508 6.306 11.7508 6.534C11.7508 6.762 11.8028 6.966 11.9068 7.146C12.0108 7.322 12.1468 7.46 12.3148 7.56C12.4868 7.66 12.6708 7.71 12.8668 7.71ZM18.0182 3.93C18.3622 3.93 18.6982 4 19.0262 4.14C19.3542 4.28 19.6242 4.502 19.8362 4.806C20.0482 5.106 20.1542 5.502 20.1542 5.994V9H18.3302V6.294C18.3302 5.942 18.2502 5.678 18.0902 5.502C17.9342 5.322 17.7202 5.232 17.4482 5.232C17.2682 5.232 17.0962 5.28 16.9322 5.376C16.7682 5.468 16.6342 5.6 16.5302 5.772C16.4302 5.94 16.3802 6.134 16.3802 6.354V9H14.5502V0.744H16.3802V4.8C16.4242 4.668 16.5222 4.536 16.6742 4.404C16.8302 4.268 17.0242 4.156 17.2562 4.068C17.4922 3.976 17.7462 3.93 18.0182 3.93ZM21.9807 2.652H20.0907V1.08H25.6587V2.652H23.7747V9H21.9807V2.652ZM26.399 6.924C26.411 7.1 26.467 7.256 26.567 7.392C26.667 7.528 26.805 7.636 26.981 7.716C27.161 7.792 27.373 7.83 27.617 7.83C27.849 7.83 28.057 7.806 28.241 7.758C28.429 7.71 28.591 7.65 28.727 7.578C28.867 7.506 28.975 7.432 29.051 7.356L29.759 8.484C29.659 8.592 29.517 8.698 29.333 8.802C29.153 8.902 28.915 8.984 28.619 9.048C28.323 9.112 27.949 9.144 27.497 9.144C26.953 9.144 26.469 9.042 26.045 8.838C25.621 8.634 25.287 8.334 25.043 7.938C24.799 7.542 24.677 7.058 24.677 6.486C24.677 6.006 24.781 5.574 24.989 5.19C25.201 4.802 25.507 4.496 25.907 4.272C26.307 4.044 26.789 3.93 27.353 3.93C27.889 3.93 28.353 4.028 28.745 4.224C29.141 4.42 29.445 4.712 29.657 5.1C29.873 5.484 29.981 5.964 29.981 6.54C29.981 6.572 29.979 6.636 29.975 6.732C29.975 6.828 29.971 6.892 29.963 6.924H26.399ZM28.265 5.97C28.261 5.842 28.227 5.716 28.163 5.592C28.099 5.464 28.003 5.36 27.875 5.28C27.747 5.196 27.583 5.154 27.383 5.154C27.183 5.154 27.013 5.194 26.873 5.274C26.737 5.35 26.633 5.45 26.561 5.574C26.489 5.698 26.449 5.83 26.441 5.97H28.265ZM33.6949 6.354L35.7889 9H33.7669L32.6029 7.482L31.4389 9H29.5549L31.6429 6.498L29.7649 4.074H31.8049L32.7169 5.34L33.6709 4.074H35.5189L33.6949 6.354ZM35.3682 4.074H36.2082V2.052H38.0142V4.074H39.1182V5.574H38.0142V6.948C38.0142 7.152 38.0442 7.318 38.1042 7.446C38.1642 7.57 38.2742 7.632 38.4342 7.632C38.5422 7.632 38.6342 7.608 38.7102 7.56C38.7862 7.512 38.8322 7.48 38.8482 7.464L39.4722 8.76C39.4442 8.784 39.3562 8.828 39.2082 8.892C39.0642 8.956 38.8802 9.014 38.6562 9.066C38.4322 9.118 38.1822 9.144 37.9062 9.144C37.4142 9.144 37.0082 9.006 36.6882 8.73C36.3682 8.45 36.2082 8.02 36.2082 7.44V5.574H35.3682V4.074Z" fill="#242424"/>
</svg>
