<svg width="59" height="14" viewBox="0 0 59 14" fill="none" xmlns="http://www.w3.org/2000/svg">
<path d="M45.3182 2.54545C45.5091 2.54545 45.6364 2.41818 45.6364 2.22727V0.63636H47.2273C47.4182 0.63636 47.5455 0.50909 47.5455 0.31818C47.5455 0.12727 47.4182 0 47.2273 0H45.3182C45.1273 0 45 0.12727 45 0.31818V2.22727C45 2.41818 45.1273 2.54545 45.3182 2.54545ZM58.6818 0H56.7727C56.5818 0 56.4545 0.12727 56.4545 0.31818C56.4545 0.50909 56.5818 0.63636 56.7727 0.63636H58.3636V2.22727C58.3636 2.41818 58.4909 2.54545 58.6818 2.54545C58.8727 2.54545 59 2.41818 59 2.22727V0.31818C59 0.12727 58.8727 0 58.6818 0ZM58.6818 11.4545C58.4909 11.4545 58.3636 11.5818 58.3636 11.7727V13.3636H56.7727C56.5818 13.3636 56.4545 13.4909 56.4545 13.6818C56.4545 13.8727 56.5818 14 56.7727 14H58.6818C58.8727 14 59 13.8727 59 13.6818V11.7727C59 11.5818 58.8727 11.4545 58.6818 11.4545ZM47.2273 13.3636H45.6364V11.7727C45.6364 11.5818 45.5091 11.4545 45.3182 11.4545C45.1273 11.4545 45 11.5818 45 11.7727V13.6818C45 13.8727 45.1273 14 45.3182 14H47.2273C47.4182 14 47.5455 13.8727 47.5455 13.6818C47.5455 13.4909 47.4182 13.3636 47.2273 13.3636Z" fill="url(#paint0_linear_2828_4817)"/>
<path d="M46.2727 1.59089V12.4091C46.2727 12.6 46.4 12.7273 46.5909 12.7273C46.7818 12.7273 46.9091 12.6 46.9091 12.4091V1.59089C46.9091 1.39998 46.7818 1.27271 46.5909 1.27271C46.4 1.27271 46.2727 1.39998 46.2727 1.59089ZM47.8636 1.27271C47.6727 1.27271 47.5455 1.39998 47.5455 1.59089V12.4091C47.5455 12.6 47.6727 12.7273 47.8636 12.7273C48.0545 12.7273 48.1818 12.6 48.1818 12.4091V1.59089C48.1818 1.39998 48.0545 1.27271 47.8636 1.27271ZM49.1364 1.27271C48.9455 1.27271 48.8182 1.39998 48.8182 1.59089V10.8182C48.8182 11.0091 48.9455 11.1364 49.1364 11.1364C49.3273 11.1364 49.4545 11.0091 49.4545 10.8182V1.59089C49.4545 1.39998 49.3273 1.27271 49.1364 1.27271ZM49.1364 11.7727C48.9455 11.7727 48.8182 11.9 48.8182 12.0909V12.4091C48.8182 12.6 48.9455 12.7273 49.1364 12.7273C49.3273 12.7273 49.4545 12.6 49.4545 12.4091V12.0909C49.4545 11.9 49.3273 11.7727 49.1364 11.7727ZM50.4091 11.7727C50.2182 11.7727 50.0909 11.9 50.0909 12.0909V12.4091C50.0909 12.6 50.2182 12.7273 50.4091 12.7273C50.6 12.7273 50.7273 12.6 50.7273 12.4091V12.0909C50.7273 11.9 50.6 11.7727 50.4091 11.7727ZM52.3182 11.7727C52.1273 11.7727 52 11.9 52 12.0909V12.4091C52 12.6 52.1273 12.7273 52.3182 12.7273C52.5091 12.7273 52.6364 12.6 52.6364 12.4091V12.0909C52.6364 11.9 52.5091 11.7727 52.3182 11.7727ZM54.2273 11.7727C54.0364 11.7727 53.9091 11.9 53.9091 12.0909V12.4091C53.9091 12.6 54.0364 12.7273 54.2273 12.7273C54.4182 12.7273 54.5455 12.6 54.5455 12.4091V12.0909C54.5455 11.9 54.4182 11.7727 54.2273 11.7727ZM56.4545 12.0909C56.4545 11.9 56.3273 11.7727 56.1364 11.7727C55.9455 11.7727 55.8182 11.9 55.8182 12.0909V12.4091C55.8182 12.6 55.9455 12.7273 56.1364 12.7273C56.3273 12.7273 56.4545 12.6 56.4545 12.4091V12.0909ZM50.4091 1.27271C50.2182 1.27271 50.0909 1.39998 50.0909 1.59089V10.8182C50.0909 11.0091 50.2182 11.1364 50.4091 11.1364C50.6 11.1364 50.7273 11.0091 50.7273 10.8182V1.59089C50.7273 1.39998 50.6 1.27271 50.4091 1.27271ZM54.2273 1.27271C54.0364 1.27271 53.9091 1.39998 53.9091 1.59089V10.8182C53.9091 11.0091 54.0364 11.1364 54.2273 11.1364C54.4182 11.1364 54.5455 11.0091 54.5455 10.8182V1.59089C54.5455 1.39998 54.4182 1.27271 54.2273 1.27271ZM52.3182 1.27271C52.1273 1.27271 52 1.39998 52 1.59089V10.8182C52 11.0091 52.1273 11.1364 52.3182 11.1364C52.5091 11.1364 52.6364 11.0091 52.6364 10.8182V1.59089C52.6364 1.39998 52.5091 1.27271 52.3182 1.27271ZM56.1364 11.1364C56.3273 11.1364 56.4545 11.0091 56.4545 10.8182V1.59089C56.4545 1.39998 56.3273 1.27271 56.1364 1.27271C55.9455 1.27271 55.8182 1.39998 55.8182 1.59089V10.8182C55.8182 11.0091 55.9455 11.1364 56.1364 11.1364ZM57.7273 12.4091V1.59089C57.7273 1.39998 57.6 1.27271 57.4091 1.27271C57.2182 1.27271 57.0909 1.39998 57.0909 1.59089V12.4091C57.0909 12.6 57.2182 12.7273 57.4091 12.7273C57.6 12.7273 57.7273 12.6 57.7273 12.4091Z" fill="url(#paint1_linear_2828_4817)"/>
<path d="M0.695312 3H2.78125L4.98438 8.375H5.07813L7.28125 3H9.36719V11H7.72656V5.79297H7.66016L5.58984 10.9609H4.47266L2.40234 5.77344H2.33594V11H0.695312V3ZM13.0004 11.1172C12.3937 11.1172 11.8689 10.9883 11.4262 10.7305C10.9861 10.4701 10.6463 10.1081 10.4067 9.64453C10.1671 9.17839 10.0473 8.63802 10.0473 8.02344C10.0473 7.40365 10.1671 6.86198 10.4067 6.39844C10.6463 5.93229 10.9861 5.57031 11.4262 5.3125C11.8689 5.05208 12.3937 4.92188 13.0004 4.92188C13.6072 4.92188 14.1306 5.05208 14.5707 5.3125C15.0135 5.57031 15.3546 5.93229 15.5942 6.39844C15.8338 6.86198 15.9536 7.40365 15.9536 8.02344C15.9536 8.63802 15.8338 9.17839 15.5942 9.64453C15.3546 10.1081 15.0135 10.4701 14.5707 10.7305C14.1306 10.9883 13.6072 11.1172 13.0004 11.1172ZM13.0082 9.82812C13.2843 9.82812 13.5148 9.75 13.6996 9.59375C13.8845 9.4349 14.0239 9.21875 14.1176 8.94531C14.214 8.67187 14.2621 8.36068 14.2621 8.01172C14.2621 7.66276 14.214 7.35156 14.1176 7.07812C14.0239 6.80469 13.8845 6.58854 13.6996 6.42969C13.5148 6.27083 13.2843 6.19141 13.0082 6.19141C12.7296 6.19141 12.4952 6.27083 12.3051 6.42969C12.1176 6.58854 11.9757 6.80469 11.8793 7.07812C11.7856 7.35156 11.7387 7.66276 11.7387 8.01172C11.7387 8.36068 11.7856 8.67187 11.8793 8.94531C11.9757 9.21875 12.1176 9.4349 12.3051 9.59375C12.4952 9.75 12.7296 9.82812 13.0082 9.82812ZM21.996 5L19.8983 11H18.0233L15.9257 5H17.6835L18.9296 9.29297H18.9921L20.2343 5H21.996ZM23.9573 11.1133C23.5745 11.1133 23.2334 11.0469 22.9339 10.9141C22.6344 10.7786 22.3974 10.5794 22.223 10.3164C22.0511 10.0508 21.9652 9.72005 21.9652 9.32422C21.9652 8.99089 22.0264 8.71094 22.1488 8.48437C22.2711 8.25781 22.4378 8.07552 22.6488 7.9375C22.8597 7.79948 23.0993 7.69531 23.3675 7.625C23.6383 7.55469 23.9222 7.50521 24.2191 7.47656C24.568 7.4401 24.8493 7.40625 25.0628 7.375C25.2764 7.34115 25.4313 7.29167 25.5277 7.22656C25.624 7.16146 25.6722 7.0651 25.6722 6.9375V6.91406C25.6722 6.66667 25.5941 6.47526 25.4378 6.33984C25.2842 6.20443 25.0654 6.13672 24.7816 6.13672C24.4821 6.13672 24.2438 6.20312 24.0667 6.33594C23.8896 6.46615 23.7724 6.63021 23.7152 6.82812L22.1761 6.70312C22.2542 6.33854 22.4079 6.02344 22.637 5.75781C22.8662 5.48958 23.1618 5.28385 23.5238 5.14062C23.8883 4.99479 24.3102 4.92188 24.7894 4.92188C25.1227 4.92188 25.4417 4.96094 25.7464 5.03906C26.0537 5.11719 26.3258 5.23828 26.5628 5.40234C26.8024 5.56641 26.9912 5.77734 27.1292 6.03516C27.2672 6.29036 27.3363 6.59635 27.3363 6.95312V11H25.7581V10.168H25.7113C25.6149 10.3555 25.486 10.5208 25.3245 10.6641C25.1631 10.8047 24.9691 10.9154 24.7425 10.9961C24.5159 11.0742 24.2542 11.1133 23.9573 11.1133ZM24.4339 9.96484C24.6787 9.96484 24.8948 9.91667 25.0823 9.82031C25.2698 9.72135 25.417 9.58854 25.5238 9.42188C25.6305 9.25521 25.6839 9.06641 25.6839 8.85547V8.21875C25.6318 8.2526 25.5602 8.28385 25.4691 8.3125C25.3805 8.33854 25.2803 8.36328 25.1683 8.38672C25.0563 8.40755 24.9443 8.42708 24.8323 8.44531C24.7204 8.46094 24.6188 8.47526 24.5277 8.48828C24.3323 8.51693 24.1618 8.5625 24.0159 8.625C23.8701 8.6875 23.7568 8.77214 23.6761 8.87891C23.5954 8.98307 23.555 9.11328 23.555 9.26953C23.555 9.49609 23.637 9.66927 23.8011 9.78906C23.9678 9.90625 24.1787 9.96484 24.4339 9.96484ZM29.3709 11L27.738 5H29.4216L30.3513 9.03125H30.406L31.3748 5H33.0271L34.0115 9.00781H34.0623L34.9763 5H36.656L35.0271 11H33.2654L32.2341 7.22656H32.1599L31.1287 11H29.3709ZM39.6877 11.1172C39.0705 11.1172 38.5393 10.9922 38.0939 10.7422C37.6512 10.4896 37.3101 10.1328 37.0705 9.67187C36.8309 9.20833 36.7111 8.66016 36.7111 8.02734C36.7111 7.41016 36.8309 6.86849 37.0705 6.40234C37.3101 5.9362 37.6473 5.57292 38.0822 5.3125C38.5197 5.05208 39.0327 4.92188 39.6213 4.92188C40.0171 4.92188 40.3856 4.98568 40.7268 5.11328C41.0705 5.23828 41.37 5.42708 41.6252 5.67969C41.883 5.93229 42.0835 6.25 42.2268 6.63281C42.37 7.01302 42.4416 7.45833 42.4416 7.96875V8.42578H37.3752V7.39453H40.8752C40.8752 7.15495 40.8231 6.94271 40.7189 6.75781C40.6148 6.57292 40.4702 6.42839 40.2854 6.32422C40.1031 6.21745 39.8908 6.16406 39.6486 6.16406C39.396 6.16406 39.1721 6.22266 38.9768 6.33984C38.784 6.45443 38.633 6.60937 38.5236 6.80469C38.4143 6.9974 38.3583 7.21224 38.3557 7.44922V8.42969C38.3557 8.72656 38.4104 8.98307 38.5197 9.19922C38.6317 9.41536 38.7893 9.58203 38.9924 9.69922C39.1955 9.81641 39.4364 9.875 39.715 9.875C39.8999 9.875 40.0692 9.84896 40.2229 9.79688C40.3765 9.74479 40.508 9.66667 40.6174 9.5625C40.7268 9.45833 40.8101 9.33073 40.8674 9.17969L42.4064 9.28125C42.3283 9.65104 42.1682 9.97396 41.926 10.25C41.6864 10.5234 41.3765 10.737 40.9963 10.8906C40.6187 11.0417 40.1825 11.1172 39.6877 11.1172Z" fill="url(#paint2_linear_2828_4817)"/>
<defs>
<linearGradient id="paint0_linear_2828_4817" x1="45" y1="7" x2="59" y2="7" gradientUnits="userSpaceOnUse">
<stop stop-color="#4500E6"/>
<stop offset="1" stop-color="#D900AA"/>
</linearGradient>
<linearGradient id="paint1_linear_2828_4817" x1="46.2727" y1="6.99997" x2="57.7273" y2="6.99997" gradientUnits="userSpaceOnUse">
<stop stop-color="#4500E6"/>
<stop offset="1" stop-color="#D900AA"/>
</linearGradient>
<linearGradient id="paint2_linear_2828_4817" x1="0" y1="6.5" x2="43" y2="6.5" gradientUnits="userSpaceOnUse">
<stop stop-color="#4A00E4"/>
<stop offset="1" stop-color="#D301AC"/>
</linearGradient>
</defs>
</svg>
